<svg xmlns="http://www.w3.org/2000/svg" viewBox="0 0 64 64" role="img" aria-labelledby="title desc">
  <title id="title">NoStress AI favicon</title>
  <desc id="desc">Rounded square with gradient background and letters N S overlapping</desc>
  <defs>
    <linearGradient id="bg" x1="0%" y1="0%" x2="100%" y2="100%">
      <stop offset="0%" stop-color="#4f7a75"/>
      <stop offset="100%" stop-color="#6fb1a7"/>
    </linearGradient>
  </defs>
  <rect width="64" height="64" rx="16" fill="url(#bg)"/>
  <path fill="#f7f8f5" d="M20 44V20h4.6l12.5 16.9V20H42v24h-4.5L25.5 26.9V44H20z"/>
  <path fill="#f7f8f5" d="M44 40.4c-2.2 2-5 3-8.2 3-4.8 0-8.1-2.7-8.1-6.6 0-3.1 2-5 6.6-5.9l2.4-.5c1.9-.4 2.7-.9 2.7-2 0-1.4-1.4-2.3-3.7-2.3-2.2 0-4.6.8-6.4 2.2l-1.8-3.5c2.3-1.8 5.7-2.9 8.9-2.9 4.8 0 8 2.6 8 6.4 0 3.4-2.2 5.4-6.6 6.3l-2.2.4c-2 .4-2.9 1-2.9 2.2 0 1.4 1.4 2.3 3.6 2.3 2.5 0 4.7-.9 6-2.1l2.1 3.5z"/>
</svg>
